<?xml version="1.0" encoding="utf-8"?>
<!-- Generator: Adobe Illustrator 19.0.0, SVG Export Plug-In . SVG Version: 6.00 Build 0)  -->
<svg version="1.1" id="Layer_1" xmlns="http://www.w3.org/2000/svg" xmlns:xlink="http://www.w3.org/1999/xlink" x="0px" y="0px"
	 viewBox="0 0 66.8 32" style="enable-background:new 0 0 66.8 32;" xml:space="preserve">
<style type="text/css">
	.st0{fill:#25A17C;}
	.st1{fill:#FFFFFF;}
	.st2{fill:url(#XMLID_21_);}
	.st3{fill:url(#XMLID_22_);}
	.st4{fill:url(#XMLID_23_);}
	.st5{fill:url(#XMLID_24_);}
	.st6{fill:url(#XMLID_25_);}
	.st7{fill:url(#XMLID_26_);}
	.st8{fill:url(#XMLID_27_);}
	.st9{fill:url(#XMLID_28_);}
	.st10{fill:none;stroke:#FFFFFF;stroke-width:0.8501;stroke-miterlimit:10;}
</style>
<g id="XMLID_1_">
	<g id="XMLID_32_">
		<circle id="XMLID_33_" class="st0" cx="50.8" cy="16.1" r="15.9"/>
	</g>
</g>
<g id="XMLID_5_">
	<circle id="XMLID_15_" class="st1" cx="16.5" cy="16.1" r="15.9"/>
	<g id="XMLID_6_">
		<linearGradient id="XMLID_21_" gradientUnits="userSpaceOnUse" x1="17.8849" y1="11.2787" x2="24.1403" y2="5.0232">
			<stop  offset="0" style="stop-color:#F79421"/>
			<stop  offset="1" style="stop-color:#F6AC1D"/>
		</linearGradient>
		<path id="XMLID_14_" class="st2" d="M26.5,5.2c0.3-0.3,0.1-0.8-0.3-0.8h-2.6c-0.8,0-1.7,0.3-2.3,0.9l-4.8,4.8l2.5,2.5L26.5,5.2z"
			/>
		<linearGradient id="XMLID_22_" gradientUnits="userSpaceOnUse" x1="12.311" y1="8.5815" x2="16.8604" y2="12.9684">
			<stop  offset="0" style="stop-color:#F79421"/>
			<stop  offset="1" style="stop-color:#F6AC1D"/>
		</linearGradient>
		<path id="XMLID_13_" class="st3" d="M14,12.7l1.6,1.5c0.5,0.5,1.4,0.5,1.9,0l1.3-1.3l0.3-0.3l-2.5-2.5l-1.6-1.6
			c-0.6-0.6-1.4-0.9-2.2-0.9H9L14,12.7L14,12.7z"/>
		<linearGradient id="XMLID_23_" gradientUnits="userSpaceOnUse" x1="15.3777" y1="20.8482" x2="10.3408" y2="25.4789">
			<stop  offset="0" style="stop-color:#F79421"/>
			<stop  offset="1" style="stop-color:#F6AC1D"/>
		</linearGradient>
		<path id="XMLID_12_" class="st4" d="M6.5,27c-0.3,0.3-0.1,0.8,0.3,0.8h2.7c0.8,0,1.6-0.3,2.2-0.9l4.8-4.8L14,19.5L6.5,27z"/>
		<linearGradient id="XMLID_24_" gradientUnits="userSpaceOnUse" x1="20.7684" y1="23.9124" x2="16.219" y2="19.038">
			<stop  offset="0" style="stop-color:#F79421"/>
			<stop  offset="1" style="stop-color:#F6AC1D"/>
		</linearGradient>
		<path id="XMLID_11_" class="st5" d="M17.5,18c-0.5-0.5-1.4-0.5-1.9,0l-1.3,1.3L14,19.5l0,0l2.5,2.5l1.6,1.6
			c0.6,0.6,1.4,0.9,2.3,0.9H24l-5-5l0,0L17.5,18z"/>
		<linearGradient id="XMLID_25_" gradientUnits="userSpaceOnUse" x1="11.0377" y1="15.6263" x2="5.026" y2="9.4521">
			<stop  offset="0" style="stop-color:#F79421"/>
			<stop  offset="1" style="stop-color:#F6AC1D"/>
		</linearGradient>
		<path id="XMLID_10_" class="st6" d="M10.6,16.1L9,17.7l4.1-4.1L5.6,6.1C5.3,5.8,4.8,6,4.8,6.4V9c0,0.8,0.3,1.6,0.9,2.2L10.6,16.1z
			"/>
		<linearGradient id="XMLID_26_" gradientUnits="userSpaceOnUse" x1="8.9488" y1="20.4077" x2="12.6046" y2="16.5082">
			<stop  offset="0" style="stop-color:#F79421"/>
			<stop  offset="1" style="stop-color:#F6AC1D"/>
		</linearGradient>
		<path id="XMLID_9_" class="st7" d="M8.1,19.9v3.7l5-5l0,0l1.6-1.6c0.5-0.5,0.5-1.4,0-1.9l-1.6-1.5L9,17.7
			C8.4,18.3,8.1,19.1,8.1,19.9z"/>
		<linearGradient id="XMLID_27_" gradientUnits="userSpaceOnUse" x1="21.5355" y1="17.5855" x2="27.466" y2="23.7597">
			<stop  offset="0" style="stop-color:#F79421"/>
			<stop  offset="1" style="stop-color:#F6AC1D"/>
		</linearGradient>
		<path id="XMLID_8_" class="st8" d="M20,18.6l7.5,7.5c0.3,0.3,0.7,0.1,0.7-0.3v-2.7c0-0.8-0.3-1.6-0.9-2.2l-4.8-4.8L20,18.6z"/>
		<linearGradient id="XMLID_28_" gradientUnits="userSpaceOnUse" x1="26.1293" y1="10.25" x2="19.2239" y2="16.5055">
			<stop  offset="0" style="stop-color:#F79421"/>
			<stop  offset="1" style="stop-color:#F6AC1D"/>
		</linearGradient>
		<path id="XMLID_7_" class="st9" d="M25,12.3V8.5l-5,5l0,0l-1.5,1.5c-0.5,0.5-0.5,1.4,0,1.9l1.5,1.6l4.1-4.1
			C24.6,13.9,25,13.1,25,12.3z"/>
	</g>
</g>
<g id="XMLID_8294_">
	<path id="XMLID_8283_" class="st1" d="M42.2,5.7L59,5.8l0,4.5l-6,0l0,6.5l-4.4,0l0-6.6l-6.5,0C42.1,10.1,42.2,5.5,42.2,5.7z"/>
	<polygon id="XMLID_8282_" class="st1" points="48.5,18.5 53.1,18.5 53,26.5 48.4,26.5 	"/>
	
		<ellipse id="XMLID_8281_" transform="matrix(4.369397e-003 -1 1 4.369397e-003 34.6976 66.5111)" class="st10" cx="50.8" cy="15.8" rx="2.5" ry="10.7"/>
</g>
<g id="XMLID_3_">
</g>
<g id="XMLID_4_">
</g>
<g id="XMLID_16_">
</g>
<g id="XMLID_17_">
</g>
<g id="XMLID_18_">
</g>
<g id="XMLID_19_">
</g>
</svg>
