<svg width="65" height="32" viewBox="0 0 65 32" fill="none" xmlns="http://www.w3.org/2000/svg">
<path d="M16 32C24.8366 32 32 24.8366 32 16C32 7.16344 24.8366 0 16 0C7.16344 0 0 7.16344 0 16C0 24.8366 7.16344 32 16 32Z" fill="white"/>
<path fill-rule="evenodd" clip-rule="evenodd" d="M15.9572 22.9729L9.84616 8.61548H22.1533L16.0423 22.9729H15.9572Z" fill="#D8F0F0"/>
<path opacity="0.7" fill-rule="evenodd" clip-rule="evenodd" d="M15.9572 25.8462L9.84616 11.4888H22.1533L16.0423 25.8462H15.9572Z" fill="#00CBFF"/>
<path d="M64.9132 16.0003C64.9132 24.7904 57.7876 31.9161 48.9977 31.9161C40.2076 31.9161 33.082 24.7904 33.082 16.0003C33.082 7.21037 40.2076 0.0847168 48.9977 0.0847168C57.7875 0.0847168 64.9132 7.21037 64.9132 16.0003Z" fill="#00A478"/>
<path d="M47.3656 15.7216V12.9372H43.5891V10.4966H54.1421V12.9716H50.3656V15.7216H47.3656Z" fill="white"/>
<path fill-rule="evenodd" clip-rule="evenodd" d="M41.9656 16.0311C41.9656 15.1029 45.0009 14.3467 48.7774 14.3467C52.5538 14.3467 55.5891 15.1029 55.5891 16.0311C55.5891 16.9592 52.5538 17.7154 48.7774 17.7154C45.0009 17.7154 41.9656 16.9592 41.9656 16.0311ZM55.0244 16.0311C54.7774 15.6873 52.7303 14.6217 48.7774 14.6217C44.8244 14.6217 42.7774 15.6529 42.5303 16.0311C42.7774 16.3748 44.8244 16.8904 48.7774 16.8904C52.7656 16.8904 54.7774 16.3748 55.0244 16.0311Z" fill="white"/>
<path d="M50.3656 16.5809V14.6559C49.8715 14.6215 49.3421 14.5872 48.8126 14.5872C48.3185 14.5872 47.8597 14.5872 47.4009 14.6215V16.5465C47.8244 16.5465 48.3185 16.5809 48.8126 16.5809C49.3421 16.6153 49.8715 16.6153 50.3656 16.5809Z" fill="white"/>
<path d="M48.7774 17.7152C48.2832 17.7152 47.8244 17.7152 47.3656 17.6809V22.8027H50.3303V17.6465C49.8362 17.6809 49.3068 17.7152 48.7774 17.7152Z" fill="white"/>
</svg>
