<svg version="1.0" xmlns="http://www.w3.org/2000/svg"
 width="202" height="134" viewBox="0 0 926.000000 917.000000"
 preserveAspectRatio="xMidYMid meet">

<g transform="translate(0.000000,917.000000) scale(0.100000,-0.100000)"
fill="none" stroke="none">
<path d="M10 4590 l0 -4580 4627 0 4626 0 -6 3332 c-4 1832 -7 3892 -7 4577
l0 1246 -4620 2 -4620 2 0 -4579z m2916 2471 c43 -19 86 -68 99 -110 12 -38 7
-108 -9 -138 -19 -37 -64 -79 -99 -92 -46 -18 -126 -13 -174 10 -51 25 -78 59
-93 121 -38 151 127 276 276 209z m3278 -6 c100 -26 166 -65 247 -145 181
-179 219 -419 102 -644 -64 -123 -185 -223 -330 -273 -42 -15 -135 -18 -808
-22 l-760 -6 -62 -29 c-77 -35 -154 -113 -191 -193 -22 -48 -26 -72 -27 -143
0 -171 86 -299 245 -362 53 -22 69 -22 560 -28 557 -6 527 -3 655 -75 76 -42
179 -149 222 -231 111 -208 74 -475 -88 -649 -70 -74 -134 -118 -227 -154
l-67 -26 -650 -6 c-720 -6 -696 -4 -841 -75 -137 -67 -253 -183 -319 -319 -68
-137 -68 -140 -75 -670 -5 -350 -10 -491 -19 -520 -60 -185 -223 -338 -401
-376 -79 -17 -242 -6 -310 20 -144 55 -266 179 -322 327 -23 59 -23 60 -26
786 -3 811 -4 792 65 918 47 84 143 178 225 218 129 63 103 62 1088 62 849 0
897 1 935 19 149 69 155 280 10 359 -27 15 -96 18 -610 23 -564 5 -582 6 -655
28 -132 40 -225 95 -326 196 -147 146 -212 290 -222 491 -8 174 30 315 122
453 89 134 231 242 391 298 80 28 80 28 415 33 286 4 339 7 365 21 123 68 127
246 7 317 l-47 27 -575 5 c-645 6 -615 2 -666 80 -59 89 -33 204 60 261 30 18
78 19 1441 19 1225 0 1418 -2 1469 -15z"/>
<path d="M5439 4791 c-143 -90 -88 -312 81 -329 71 -7 116 5 157 41 93 82 83
223 -20 290 -34 22 -52 27 -107 27 -56 0 -73 -5 -111 -29z"/>
</g>
</svg>
