<svg width="44" height="36" viewBox="0 0 44 36" fill="none" xmlns="http://www.w3.org/2000/svg">
<g clip-path="url(#clip0_740_2036)">
<path d="M15.4 17.6C20.2606 17.6 24.2 13.6599 24.2 8.8C24.2 3.94006 20.2606 0 15.4 0C10.5394 0 6.6 3.94006 6.6 8.8C6.6 13.6599 10.5394 17.6 15.4 17.6ZM18.8856 20.9H11.9144C5.33294 20.9 0 26.235 0 32.8144C0 34.1344 1.067 35.2 2.38287 35.2H28.4144C29.7344 35.2 30.8 34.1344 30.8 32.8144C30.8 26.235 25.465 20.9 18.8856 20.9ZM32.9381 22H27.8609C31.02 24.5919 33 28.4694 33 32.8144C33 33.6944 32.7388 34.5056 32.3125 35.2H41.8C43.0169 35.2 44 34.21 44 32.9381C44 26.9225 39.0775 22 32.9381 22ZM29.7 17.6C33.9556 17.6 37.4 14.1556 37.4 9.9C37.4 5.64437 33.9556 2.2 29.7 2.2C27.9737 2.2 26.3973 2.78816 25.113 3.74756C25.905 5.26831 26.4 6.97125 26.4 8.8C26.4 11.242 25.5798 13.4846 24.2282 15.3113C25.6231 16.72 27.555 17.6 29.7 17.6Z" fill="white"/>
</g>
<defs>
<clipPath id="clip0_740_2036">
<rect width="44" height="35.2" fill="white"/>
</clipPath>
</defs>
</svg>
