<svg width="8" height="25" viewBox="0 0 8 25" fill="none" xmlns="http://www.w3.org/2000/svg">
<path d="M0.685547 21.2285C0.685547 20.3691 0.979167 19.6458 1.56641 19.0586C2.15365 18.4714 2.94857 18.1777 3.95117 18.1777C4.95378 18.1777 5.7487 18.4714 6.33594 19.0586C6.92318 19.6458 7.2168 20.3691 7.2168 21.2285C7.2168 22.0736 6.92318 22.7897 6.33594 23.377C5.7487 23.9499 4.95378 24.2363 3.95117 24.2363C2.94857 24.2363 2.15365 23.9499 1.56641 23.377C0.979167 22.7897 0.685547 22.0736 0.685547 21.2285ZM0.707031 3.20312C0.707031 2.34375 1.00065 1.62044 1.58789 1.0332C2.17513 0.445964 2.97005 0.152344 3.97266 0.152344C4.97526 0.152344 5.77018 0.445964 6.35742 1.0332C6.94466 1.62044 7.23828 2.34375 7.23828 3.20312C7.23828 4.04818 6.94466 4.76432 6.35742 5.35156C5.77018 5.92448 4.97526 6.21094 3.97266 6.21094C2.97005 6.21094 2.17513 5.92448 1.58789 5.35156C1.00065 4.76432 0.707031 4.04818 0.707031 3.20312Z" fill="white"/>
</svg>
